<?xml version="1.0" encoding="UTF-8" standalone="no"?>
<!-- Created with Inkscape (http://www.inkscape.org/) -->

<svg
   version="1.1"
   id="svg508"
   width="225"
   height="225"
   viewBox="0 0 225 225"
   sodipodi:docname="start4.svg"
   inkscape:version="1.1.2 (1:1.1+202202050950+0a00cf5339)"
   xmlns:inkscape="http://www.inkscape.org/namespaces/inkscape"
   xmlns:sodipodi="http://sodipodi.sourceforge.net/DTD/sodipodi-0.dtd"
   xmlns="http://www.w3.org/2000/svg"
   xmlns:svg="http://www.w3.org/2000/svg">
  <defs
     id="defs512">
    <style
       id="style1201">.cls-1{fill-rule:evenodd;}</style>
    <style
       id="style1394">.cls-1{fill-rule:evenodd;}</style>
    <style
       id="style1640">.cls-1{fill-rule:evenodd;}</style>
  </defs>
  <sodipodi:namedview
     id="namedview510"
     pagecolor="#ffffff"
     bordercolor="#666666"
     borderopacity="1.0"
     inkscape:pageshadow="2"
     inkscape:pageopacity="0.0"
     inkscape:pagecheckerboard="0"
     showgrid="false"
     inkscape:zoom="1.6059181"
     inkscape:cx="76.903052"
     inkscape:cy="108.03789"
     inkscape:window-width="1366"
     inkscape:window-height="684"
     inkscape:window-x="0"
     inkscape:window-y="0"
     inkscape:window-maximized="1"
     inkscape:current-layer="g514" />
  <g
     inkscape:groupmode="layer"
     inkscape:label="Image"
     id="g514">
    <path
       class="st0"
       d="M 90.733865,39.886325 C 86.325485,29.746872 82.381143,19.516886 79.016853,9.1058404 91.499531,-1.5767969 139.69009,-0.1645162 153.56489,8.9428854 L 140.7342,32.752496 c 6.91418,-7.079512 9.23439,-9.976499 13.34115,-13.923642 1.74014,0.887201 3.36428,1.883039 4.89562,2.96941 3.64272,2.571076 6.91418,5.43185 7.56384,9.397102 0.41763,2.571074 -0.51046,5.196469 -3.45708,7.876181 l -29.44334,26.760919 c -3.78194,-0.488864 -7.49426,-1.195011 -11.09058,-2.190851 1.67055,-3.059943 3.68912,-6.445793 5.35968,-9.505736 l -10.71934,9.016873 C 106.02399,61.305917 97.021609,62.410392 88.668888,65.868677 L 58.784702,37.894646 C 57.021349,36.22888 56.209279,34.563112 56.209279,32.897345 56.232469,26.143744 69.132799,20.295452 75.930985,18.0865 Z m 38.283305,50.534313 -5.8237,-20.803982 c 24.96536,3.621231 64.98883,43.255624 77.91234,61.271284 6.58937,9.19791 12.38986,19.33738 17.12309,30.65374 9.42,27.41273 0.34803,53.05105 -37.74967,59.0261 -23.87488,3.74798 -68.39952,4.00146 -93.504089,2.98752 C 59.991206,222.46892 18.204392,222.50513 7.2994497,200.86826 -10.310875,165.95957 21.963118,124.3697 51.383261,98.912435 55.257998,95.562785 59.248742,92.448531 63.401903,89.551546 74.098026,82.200435 85.652626,73.491368 99.411417,69.852038 L 86.093465,89.189415 105.42073,69.200216 h 10.18569 z M 116.6041,107.49476 v 3.67555 c 4.98843,0.41644 9.2808,1.21311 12.85391,2.40812 3.57312,1.21311 6.6822,3.02373 9.35042,5.46807 2.11138,1.86493 3.73552,3.78418 4.8724,5.73964 1.13691,1.97358 1.71696,3.76609 1.71696,5.41375 0,1.82872 -0.85848,3.40397 -2.55223,4.72571 -1.71693,1.32176 -3.78191,1.99167 -6.21812,1.99167 -4.594,0 -7.56386,-1.93734 -8.90957,-5.79395 -1.55456,-4.54466 -5.24367,-7.58651 -11.13697,-9.0712 v 22.72325 c 5.7773,1.23121 10.41769,2.37189 13.8284,3.38585 3.43388,1.01393 6.51976,2.48054 9.21118,4.41789 2.90026,1.99169 5.12767,4.39981 6.70539,7.17005 1.55454,2.78835 2.34341,5.83019 2.34341,9.14361 0,4.14631 -1.22971,8.03915 -3.75873,11.64227 -2.50581,3.63934 -6.19493,6.57254 -11.04416,8.89013 -4.8724,2.29948 -10.62651,3.65744 -17.30869,4.0739 v 3.71175 c 0,2.13653 -0.27843,3.71176 -0.81208,4.6895 -0.53364,0.97772 -1.69374,1.46659 -3.5267,1.46659 -1.67054,0 -2.85385,-0.39833 -3.52671,-1.195 -0.67285,-0.79666 -0.99768,-2.046 -0.99768,-3.72988 v -4.85244 c -5.45247,-0.47076 -10.232082,-1.4666 -14.315637,-3.00563 -4.083552,-1.52091 -7.494247,-3.42205 -10.232084,-5.70345 -2.714633,-2.29946 -4.756411,-4.65328 -6.03252,-7.0976 -1.322516,-2.46243 -1.94897,-4.88867 -1.94897,-7.24247 0,-1.7382 0.858476,-3.31343 2.621827,-4.70761 1.740152,-1.39417 3.921138,-2.10032 6.519765,-2.10032 2.111382,0 3.874735,0.38023 5.336461,1.14069 1.438524,0.76046 2.43621,1.84684 3.01626,3.22291 1.252908,2.98752 2.343404,5.26888 3.271484,6.86223 0.951283,1.57524 2.366604,3.04184 4.245964,4.34547 1.87936,1.30366 4.38517,2.3176 7.51745,3.00565 v -25.38487 c -6.26454,-1.35795 -11.461789,-2.84266 -15.661353,-4.50844 -4.199562,-1.66575 -7.610258,-4.00145 -10.208882,-7.0614 -2.598626,-3.05994 -3.921139,-6.98898 -3.921139,-11.78711 0,-6.26472 2.552222,-11.40689 7.656663,-15.39025 5.10444,-4.00146 12.482677,-6.33716 22.134711,-6.98899 v -3.56689 c 0,-3.05995 1.48493,-4.58087 4.40838,-4.58087 3.01627,-0.0181 4.50119,1.46659 4.50119,4.45412 z m -8.88637,35.23461 v -20.91264 c -3.92114,0.90531 -6.98381,2.10031 -9.164788,3.60313 -2.20419,1.48471 -3.294685,3.76608 -3.294685,6.78983 0,2.86077 1.020888,5.0516 3.085868,6.51821 2.041775,1.46659 5.174035,2.80644 9.373605,4.00147 z m 8.88637,16.20502 v 23.93635 c 4.71001,-0.72425 8.32952,-2.19085 10.90495,-4.4179 2.55222,-2.24516 3.85152,-4.81625 3.85152,-7.76755 0,-3.16858 -1.2529,-5.61292 -3.75871,-7.3511 -2.48262,-1.73821 -6.14854,-3.20481 -10.99776,-4.3998 z"
       id="path1848"
       style="stroke-width:2.04964;fill:#ffffff" />
  </g>
  <style
     type="text/css"
     id="style1024">.st0{fill-rule:evenodd;clip-rule:evenodd;}</style>
  <style
     type="text/css"
     id="style1846">.st0{fill-rule:evenodd;clip-rule:evenodd;}</style>
</svg>
