<?xml version="1.0" encoding="UTF-8" standalone="no"?>
<!-- Created with Inkscape (http://www.inkscape.org/) -->

<svg
   version="1.1"
   id="svg508"
   width="225"
   height="225"
   viewBox="0 0 225 225"
   sodipodi:docname="update.svg"
   inkscape:version="1.1.2 (1:1.1+202202050950+0a00cf5339)"
   xmlns:inkscape="http://www.inkscape.org/namespaces/inkscape"
   xmlns:sodipodi="http://sodipodi.sourceforge.net/DTD/sodipodi-0.dtd"
   xmlns="http://www.w3.org/2000/svg"
   xmlns:svg="http://www.w3.org/2000/svg">
  <defs
     id="defs512" />
  <sodipodi:namedview
     id="namedview510"
     pagecolor="#ffffff"
     bordercolor="#666666"
     borderopacity="1.0"
     inkscape:pageshadow="2"
     inkscape:pageopacity="0.0"
     inkscape:pagecheckerboard="0"
     showgrid="false"
     inkscape:zoom="1.6059181"
     inkscape:cx="76.903052"
     inkscape:cy="108.03789"
     inkscape:window-width="1366"
     inkscape:window-height="684"
     inkscape:window-x="0"
     inkscape:window-y="0"
     inkscape:window-maximized="1"
     inkscape:current-layer="g514" />
  <g
     inkscape:groupmode="layer"
     inkscape:label="Image"
     id="g514">
    <path
       class="st0"
       d="m 175.47662,122.2318 c 27.23639,0 49.31946,22.08307 49.31946,49.31946 0,27.2364 -22.08307,49.31947 -49.31946,49.31947 -27.23639,0 -49.31947,-22.08307 -49.31947,-49.31947 0,-27.23639 22.08308,-49.31946 49.31947,-49.31946 z m 1.88713,20.95805 c 2.14117,0 3.84684,0.61695 5.06259,1.85084 1.21575,1.23389 1.8327,2.90328 1.8327,5.08074 0,2.19561 -1.05244,4.15532 -3.15732,5.861 -2.12302,1.70567 -4.59081,2.57666 -7.38521,2.57666 -2.10488,0 -3.79241,-0.58066 -5.0626,-1.77826 -1.28833,-1.1976 -1.92342,-2.73997 -1.92342,-4.6634 0,-2.43149 1.05244,-4.51822 3.13917,-6.29648 2.06859,-1.76012 4.57267,-2.6311 7.49409,-2.6311 z m -10.52439,54.50908 v -28.17996 h -5.20776 c 0,-7.09489 13.04662,-2.48593 22.64558,-4.91743 v 33.09739 c 18.12736,0 -36.0551,0 -17.43782,0 z M 33.923579,51.772806 c 14.697854,4.91743 35.165978,7.947728 57.902288,7.947728 22.736313,0 43.204433,-3.030298 57.902293,-7.947728 12.90145,-4.300484 20.88547,-9.526387 20.88547,-14.625273 0,-5.098885 -7.98402,-10.324789 -20.88547,-14.625272 -14.69786,-4.899285 -35.16598,-7.947729 -57.902293,-7.947729 -22.73631,0 -43.204434,3.030299 -57.902288,7.947729 -27.3815579,9.145332 -28.1436689,19.869322 0,29.250545 z M 13.146983,90.223119 c 1.016148,4.754121 8.764275,9.544531 20.776596,13.554701 14.697854,4.91744 35.165978,7.94773 57.902288,7.94773 22.736313,0 43.204433,-3.03029 57.902293,-7.94773 12.90145,-4.3005 20.88547,-9.5264 20.88547,-14.625286 h 0.0544 V 54.131721 c -4.59081,3.139171 -10.4881,5.915432 -17.40153,8.219911 -15.84102,5.28034 -37.57933,8.564676 -61.440663,8.564676 -23.879477,0 -45.59964,-3.26619 -61.44066,-8.564676 C 23.544353,60.065299 17.719648,57.343474 13.165128,54.240594 V 90.223119 Z M 116.6852,171.29723 c -7.89329,0.7984 -16.24022,1.21575 -24.859333,1.21575 -23.879477,0 -45.59964,-3.26619 -61.44066,-8.56468 -6.840854,-2.28633 -12.665559,-5.00816 -17.220079,-8.11104 v 33.55103 c 1.016148,4.75412 8.764276,9.54453 20.776596,13.55469 14.697855,4.89928 35.165978,7.94773 57.902289,7.94773 13.645417,0 26.456137,-1.08873 37.706347,-3.0303 2.8307,3.52023 6.04245,6.71383 9.59897,9.50824 -13.66356,2.99401 -29.92193,4.71783 -47.305317,4.71783 -23.879477,0 -45.59964,-3.26619 -61.440661,-8.56468 -8.34693,-2.7944 -28.4339967,-11.93973 -28.4339967,-22.89962 0,-1.28833 0,-2.35891 0,-3.5928 -0.036291,-49.93642 -0.145164,-99.909142 -0.145164,-149.881847 0,-10.451807 10.9054447,-19.324956 28.5428697,-25.222244 15.841021,-5.2803398 37.579329,-8.5465297 61.458806,-8.5465297 23.879473,0 45.599643,3.2661899 61.440663,8.5646757 16.05877,5.352922 26.52872,13.191778 28.28883,22.445983 0.21775,0.580655 0.32662,1.215748 0.32662,1.887131 v 76.882501 c -2.17746,-0.25404 -4.39121,-0.38106 -6.64125,-0.38106 -1.54237,0 -3.04844,0.0544 -4.55452,0.18146 v -6.78642 c -4.59081,3.13917 -10.4881,5.91543 -17.40154,8.21991 -15.84102,5.28034 -37.57933,8.56468 -61.440657,8.56468 -23.879477,0 -45.59964,-3.26619 -61.440661,-8.56468 -6.840853,-2.28633 -12.665558,-5.00816 -17.220078,-8.11104 v 33.55103 c 1.016148,4.75412 8.764275,9.54453 20.776596,13.55469 14.697854,4.89928 35.165978,7.94773 57.902288,7.94773 9.090892,0 17.818882,-0.48993 25.966212,-1.37906 -0.76211,3.64725 -1.14317,7.4578 -1.14317,11.34094 z"
       id="path1026"
       style="stroke-width:1.81455;fill:#ffffff" />
  </g>
  <style
     type="text/css"
     id="style1024">.st0{fill-rule:evenodd;clip-rule:evenodd;}</style>
</svg>
