<?xml version="1.0" encoding="UTF-8" standalone="no"?>
<svg
   id="Layer_1"
   data-name="Layer 1"
   viewBox="0 0 116.8 122.88"
   version="1.1"
   sodipodi:docname="finish.svg"
   inkscape:version="1.1.2 (1:1.1+202202050950+0a00cf5339)"
   xmlns:inkscape="http://www.inkscape.org/namespaces/inkscape"
   xmlns:sodipodi="http://sodipodi.sourceforge.net/DTD/sodipodi-0.dtd"
   xmlns="http://www.w3.org/2000/svg"
   xmlns:svg="http://www.w3.org/2000/svg"
   xmlns:rdf="http://www.w3.org/1999/02/22-rdf-syntax-ns#"
   xmlns:cc="http://creativecommons.org/ns#"
   xmlns:dc="http://purl.org/dc/elements/1.1/">
  <defs
     id="defs921" />
  <sodipodi:namedview
     id="namedview919"
     pagecolor="#ffffff"
     bordercolor="#666666"
     borderopacity="1.0"
     inkscape:pageshadow="2"
     inkscape:pageopacity="0.0"
     inkscape:pagecheckerboard="0"
     showgrid="false"
     inkscape:zoom="2.9405239"
     inkscape:cx="47.100451"
     inkscape:cy="39.618791"
     inkscape:window-width="1366"
     inkscape:window-height="684"
     inkscape:window-x="0"
     inkscape:window-y="0"
     inkscape:window-maximized="1"
     inkscape:current-layer="Layer_1" />
  <title
     id="title914">black-flag</title>
  <path
     d="M18,17.8C42.77,3.24,55.21,10,66.7,16.16,76.22,21.3,84.92,26,103.75,10a4.45,4.45,0,0,1,6.2.44,4.22,4.22,0,0,1,1,2.42l5.78,56.89a4.23,4.23,0,0,1-1.38,3.57c-21.79,19.84-35,13.16-48.6,6.27C55.74,74,44.35,68.25,25.21,84.12a3.94,3.94,0,0,1-.53.38l3.09,30.81a6.89,6.89,0,1,1-13.71,1.35L4.21,18.38a10.15,10.15,0,1,1,13.68-1.67L18,17.8Z"
     id="path916"
     style="fill:#ffffff" />
  <metadata
     id="metadata957">
    <rdf:RDF>
      <cc:Work
         rdf:about="">
        <dc:title>black-flag</dc:title>
      </cc:Work>
    </rdf:RDF>
  </metadata>
</svg>
