<?xml version="1.0" encoding="UTF-8" standalone="no"?>
<!-- Created with Inkscape (http://www.inkscape.org/) -->

<svg
   version="1.1"
   id="svg508"
   width="225"
   height="225"
   viewBox="0 0 225 225"
   sodipodi:docname="refinance.svg"
   inkscape:version="1.1.2 (1:1.1+202202050950+0a00cf5339)"
   xmlns:inkscape="http://www.inkscape.org/namespaces/inkscape"
   xmlns:sodipodi="http://sodipodi.sourceforge.net/DTD/sodipodi-0.dtd"
   xmlns="http://www.w3.org/2000/svg"
   xmlns:svg="http://www.w3.org/2000/svg">
  <defs
     id="defs512">
    <style
       id="style1201">.cls-1{fill-rule:evenodd;}</style>
    <style
       id="style1394">.cls-1{fill-rule:evenodd;}</style>
  </defs>
  <sodipodi:namedview
     id="namedview510"
     pagecolor="#ffffff"
     bordercolor="#666666"
     borderopacity="1.0"
     inkscape:pageshadow="2"
     inkscape:pageopacity="0.0"
     inkscape:pagecheckerboard="0"
     showgrid="false"
     inkscape:zoom="1.6059181"
     inkscape:cx="76.903052"
     inkscape:cy="108.03789"
     inkscape:window-width="1366"
     inkscape:window-height="684"
     inkscape:window-x="0"
     inkscape:window-y="0"
     inkscape:window-maximized="1"
     inkscape:current-layer="g514" />
  <g
     inkscape:groupmode="layer"
     inkscape:label="Image"
     id="g514">
    <path
       class="cls-1"
       d="M 30.774795,58.449744 223.88721,93.344358 195.63743,167.45064 2.525,132.60976 Z m 183.177875,-6.05461 -70.22964,16.802438 11.64125,-16.46209 C 128.87214,38.118436 102.20168,34.697045 73.340534,44.316351 99.32321,12.896868 142.01633,8.2932146 178.69773,19.775477 L 190.59374,2.9193004 Z M 12.714285,173.5769 82.842043,156.72073 71.149839,173.23655 c 26.492144,14.61705 53.162601,18.02052 82.049221,8.41913 -26.03362,31.40158 -68.650312,36.04105 -105.306267,24.52297 L 35.97133,223.03482 12.561446,173.5769 Z M 121.71417,91.17688 A 32.096249,22.570438 0 1 1 82.256159,107.15532 32.019831,22.5167 0 0 1 121.56133,91.194793 Z M 60.578453,76.165748 185.55004,98.216709 a 16.124545,11.338959 0 0 0 11.412,13.864701 l -11.02991,29.30574 a 16.150017,11.356871 0 0 0 -19.74174,8.02505 L 40.862187,127.37915 A 16.099072,11.321046 0 0 0 29.450185,113.51445 L 40.581981,84.208705 A 16.200963,11.392697 0 0 0 60.374669,76.18366 Z"
       id="path1400"
       style="fill:#ffffff;stroke-width:2.13612" />
  </g>
  <style
     type="text/css"
     id="style1024">.st0{fill-rule:evenodd;clip-rule:evenodd;}</style>
</svg>
